<?xml version="1.0" encoding="UTF-8" standalone="no"?><svg xmlns="http://www.w3.org/2000/svg" xmlns:xlink="http://www.w3.org/1999/xlink" contentScriptType="application/ecmascript" contentStyleType="text/css" height="815px" preserveAspectRatio="none" style="width:942px;height:815px;" version="1.1" viewBox="0 0 942 815" width="942px" zoomAndPan="magnify"><defs><filter height="300%" id="fei8gm2oxxjqe" width="300%" x="-1" y="-1"><feGaussianBlur result="blurOut" stdDeviation="2.0"/><feColorMatrix in="blurOut" result="blurOut2" type="matrix" values="0 0 0 0 0 0 0 0 0 0 0 0 0 0 0 0 0 0 .4 0"/><feOffset dx="4.0" dy="4.0" in="blurOut2" result="blurOut3"/><feBlend in="SourceGraphic" in2="blurOut3" mode="normal"/></filter></defs><g><!--MD5=[439f428c343e26d5ae123ae76d1fab4e]
cluster logSpin--><polygon fill="#FFFFFF" filter="url(#fei8gm2oxxjqe)" points="329,251,339,241,925,241,925,798,915,808,329,808,329,251" style="stroke: #000000; stroke-width: 1.5;"/><line style="stroke: #000000; stroke-width: 1.5;" x1="915" x2="925" y1="251" y2="241"/><line style="stroke: #000000; stroke-width: 1.5;" x1="329" x2="915" y1="251" y2="251"/><line style="stroke: #000000; stroke-width: 1.5;" x1="915" x2="915" y1="251" y2="808"/><text fill="#000000" font-family="sans-serif" font-size="14" font-weight="bold" lengthAdjust="spacingAndGlyphs" textLength="60" x="593" y="266.9951">logSpin</text><!--MD5=[da2db5112a3f713e6a54a9c57ab6cd06]
cluster base part--><polygon fill="#FFFFFF" filter="url(#fei8gm2oxxjqe)" points="431,488,515,488,522,510.2969,690,510.2969,690,776,431,776,431,488" style="stroke: #000000; stroke-width: 1.5;"/><line style="stroke: #000000; stroke-width: 1.5;" x1="431" x2="522" y1="510.2969" y2="510.2969"/><text fill="#000000" font-family="sans-serif" font-size="14" font-weight="bold" lengthAdjust="spacingAndGlyphs" textLength="78" x="435" y="502.9951">base part</text><!--MD5=[a0bb257923b4feabbc8c8a837db65c88]
cluster adapter--><polygon fill="#FFFFFF" filter="url(#fei8gm2oxxjqe)" points="563,297,633,297,640,319.2969,893,319.2969,893,394,563,394,563,297" style="stroke: #000000; stroke-width: 1.5;"/><line style="stroke: #000000; stroke-width: 1.5;" x1="563" x2="640" y1="319.2969" y2="319.2969"/><text fill="#000000" font-family="sans-serif" font-size="14" font-weight="bold" lengthAdjust="spacingAndGlyphs" textLength="64" x="567" y="311.9951">adapter</text><!--MD5=[976f99969881b94dc790dacb84b85fdf]
cluster internal Plugin--><polygon fill="#FFFFFF" filter="url(#fei8gm2oxxjqe)" points="369,297,494,297,501,319.2969,539,319.2969,539,394,369,394,369,297" style="stroke: #000000; stroke-width: 1.5;"/><line style="stroke: #000000; stroke-width: 1.5;" x1="369" x2="501" y1="319.2969" y2="319.2969"/><text fill="#000000" font-family="sans-serif" font-size="14" font-weight="bold" lengthAdjust="spacingAndGlyphs" textLength="119" x="373" y="311.9951">internal Plugin</text><!--MD5=[6ad7c0b688d9e902153dd4de2b6da276]
cluster plugin--><polygon fill="#FFFFFF" filter="url(#fei8gm2oxxjqe)" points="16,6,72,6,79,28.2969,275,28.2969,275,209,16,209,16,6" style="stroke: #000000; stroke-width: 1.5;"/><line style="stroke: #000000; stroke-width: 1.5;" x1="16" x2="79" y1="28.2969" y2="28.2969"/><text fill="#000000" font-family="sans-serif" font-size="14" font-weight="bold" lengthAdjust="spacingAndGlyphs" textLength="50" x="20" y="20.9951">plugin</text><path d="M603.5,438 L603.5,463.1328 L672.5,463.1328 L672.5,448 L662.5,438 L603.5,438 " fill="#FBFB77" filter="url(#fei8gm2oxxjqe)" style="stroke: #A80036; stroke-width: 1.0;"/><path d="M662.5,438 L662.5,448 L672.5,448 L662.5,438 " fill="#FBFB77" style="stroke: #A80036; stroke-width: 1.0;"/><text fill="#000000" font-family="sans-serif" font-size="13" lengthAdjust="spacingAndGlyphs" textLength="48" x="609.5" y="455.0669">depend</text><path d="M526.5,629 L526.5,654.1328 L595.5,654.1328 L595.5,639 L585.5,629 L526.5,629 " fill="#FBFB77" filter="url(#fei8gm2oxxjqe)" style="stroke: #A80036; stroke-width: 1.0;"/><path d="M585.5,629 L585.5,639 L595.5,639 L585.5,629 " fill="#FBFB77" style="stroke: #A80036; stroke-width: 1.0;"/><text fill="#000000" font-family="sans-serif" font-size="13" lengthAdjust="spacingAndGlyphs" textLength="48" x="532.5" y="646.0669">depend</text><!--MD5=[0d482ad21d5c7c11aa976e45da5ecfe6]
entity core--><rect fill="#FEFECE" filter="url(#fei8gm2oxxjqe)" height="46.2969" style="stroke: #A80036; stroke-width: 1.5;" width="72" x="602" y="523"/><rect fill="#FEFECE" height="10" style="stroke: #A80036; stroke-width: 1.5;" width="15" x="654" y="528"/><rect fill="#FEFECE" height="2" style="stroke: #A80036; stroke-width: 1.5;" width="4" x="652" y="530"/><rect fill="#FEFECE" height="2" style="stroke: #A80036; stroke-width: 1.5;" width="4" x="652" y="534"/><text fill="#000000" font-family="sans-serif" font-size="14" lengthAdjust="spacingAndGlyphs" textLength="32" x="617" y="555.9951">core</text><!--MD5=[478a03897a05194a5cec4d896ab2849f]
entity foundation--><rect fill="#FEFECE" filter="url(#fei8gm2oxxjqe)" height="46.2969" style="stroke: #A80036; stroke-width: 1.5;" width="118" x="502" y="714"/><rect fill="#FEFECE" height="10" style="stroke: #A80036; stroke-width: 1.5;" width="15" x="600" y="719"/><rect fill="#FEFECE" height="2" style="stroke: #A80036; stroke-width: 1.5;" width="4" x="598" y="721"/><rect fill="#FEFECE" height="2" style="stroke: #A80036; stroke-width: 1.5;" width="4" x="598" y="725"/><text fill="#000000" font-family="sans-serif" font-size="14" lengthAdjust="spacingAndGlyphs" textLength="78" x="517" y="746.9951">foundation</text><!--MD5=[8f213d97c0a5b8f3c18e06a91258cdd7]
entity annotation--><rect fill="#FEFECE" filter="url(#fei8gm2oxxjqe)" height="46.2969" style="stroke: #A80036; stroke-width: 1.5;" width="119" x="447.5" y="523"/><rect fill="#FEFECE" height="10" style="stroke: #A80036; stroke-width: 1.5;" width="15" x="546.5" y="528"/><rect fill="#FEFECE" height="2" style="stroke: #A80036; stroke-width: 1.5;" width="4" x="544.5" y="530"/><rect fill="#FEFECE" height="2" style="stroke: #A80036; stroke-width: 1.5;" width="4" x="544.5" y="534"/><text fill="#000000" font-family="sans-serif" font-size="14" lengthAdjust="spacingAndGlyphs" textLength="79" x="462.5" y="555.9951">annotation</text><!--MD5=[2a7927c2cd038d58ecb105b56b901ad6]
entity pluginManager--><rect fill="#FEFECE" filter="url(#fei8gm2oxxjqe)" height="46.2969" style="stroke: #A80036; stroke-width: 1.5;" width="145" x="731.5" y="332"/><rect fill="#FEFECE" height="10" style="stroke: #A80036; stroke-width: 1.5;" width="15" x="856.5" y="337"/><rect fill="#FEFECE" height="2" style="stroke: #A80036; stroke-width: 1.5;" width="4" x="854.5" y="339"/><rect fill="#FEFECE" height="2" style="stroke: #A80036; stroke-width: 1.5;" width="4" x="854.5" y="343"/><text fill="#000000" font-family="sans-serif" font-size="14" lengthAdjust="spacingAndGlyphs" textLength="105" x="746.5" y="364.9951">pluginManager</text><!--MD5=[da3d98f4724d0ae9e9edfa208e3ca369]
entity logProcess--><rect fill="#FEFECE" filter="url(#fei8gm2oxxjqe)" height="46.2969" style="stroke: #A80036; stroke-width: 1.5;" width="117" x="579.5" y="332"/><rect fill="#FEFECE" height="10" style="stroke: #A80036; stroke-width: 1.5;" width="15" x="676.5" y="337"/><rect fill="#FEFECE" height="2" style="stroke: #A80036; stroke-width: 1.5;" width="4" x="674.5" y="339"/><rect fill="#FEFECE" height="2" style="stroke: #A80036; stroke-width: 1.5;" width="4" x="674.5" y="343"/><text fill="#000000" font-family="sans-serif" font-size="14" lengthAdjust="spacingAndGlyphs" textLength="77" x="594.5" y="364.9951">logProcess</text><!--MD5=[85da3dfa662920379de74f5f5c1147d5]
entity androidPlugin--><rect fill="#FEFECE" filter="url(#fei8gm2oxxjqe)" height="46.2969" style="stroke: #A80036; stroke-width: 1.5;" width="137" x="385.5" y="332"/><rect fill="#FEFECE" height="10" style="stroke: #A80036; stroke-width: 1.5;" width="15" x="502.5" y="337"/><rect fill="#FEFECE" height="2" style="stroke: #A80036; stroke-width: 1.5;" width="4" x="500.5" y="339"/><rect fill="#FEFECE" height="2" style="stroke: #A80036; stroke-width: 1.5;" width="4" x="500.5" y="343"/><text fill="#000000" font-family="sans-serif" font-size="14" lengthAdjust="spacingAndGlyphs" textLength="97" x="400.5" y="364.9951">androidPlugin</text><!--MD5=[59ff768d1fc80db7f512fd72b7ff2607]
entity xxplugin--><rect fill="#FEFECE" filter="url(#fei8gm2oxxjqe)" height="46.2969" style="stroke: #A80036; stroke-width: 1.5;" width="100" x="32" y="41"/><rect fill="#FEFECE" height="10" style="stroke: #A80036; stroke-width: 1.5;" width="15" x="112" y="46"/><rect fill="#FEFECE" height="2" style="stroke: #A80036; stroke-width: 1.5;" width="4" x="110" y="48"/><rect fill="#FEFECE" height="2" style="stroke: #A80036; stroke-width: 1.5;" width="4" x="110" y="52"/><text fill="#000000" font-family="sans-serif" font-size="14" lengthAdjust="spacingAndGlyphs" textLength="60" x="47" y="73.9951">xxplugin</text><!--MD5=[de026ab46f5433a2ea6642dcbef4c40d]
entity xplugin--><rect fill="#FEFECE" filter="url(#fei8gm2oxxjqe)" height="46.2969" style="stroke: #A80036; stroke-width: 1.5;" width="92" x="167" y="41"/><rect fill="#FEFECE" height="10" style="stroke: #A80036; stroke-width: 1.5;" width="15" x="239" y="46"/><rect fill="#FEFECE" height="2" style="stroke: #A80036; stroke-width: 1.5;" width="4" x="237" y="48"/><rect fill="#FEFECE" height="2" style="stroke: #A80036; stroke-width: 1.5;" width="4" x="237" y="52"/><text fill="#000000" font-family="sans-serif" font-size="14" lengthAdjust="spacingAndGlyphs" textLength="52" x="182" y="73.9951">xplugin</text><!--MD5=[5cddcd1fe9f95c0d118f2fc4de4fb478]
entity xxxplugin--><rect fill="#FEFECE" filter="url(#fei8gm2oxxjqe)" height="46.2969" style="stroke: #A80036; stroke-width: 1.5;" width="108" x="32" y="147"/><rect fill="#FEFECE" height="10" style="stroke: #A80036; stroke-width: 1.5;" width="15" x="120" y="152"/><rect fill="#FEFECE" height="2" style="stroke: #A80036; stroke-width: 1.5;" width="4" x="118" y="154"/><rect fill="#FEFECE" height="2" style="stroke: #A80036; stroke-width: 1.5;" width="4" x="118" y="158"/><text fill="#000000" font-family="sans-serif" font-size="14" lengthAdjust="spacingAndGlyphs" textLength="68" x="47" y="179.9951">xxxplugin</text><path d="M302.5,157.5 L302.5,182.6328 L371.5,182.6328 L371.5,167.5 L361.5,157.5 L302.5,157.5 " fill="#FBFB77" filter="url(#fei8gm2oxxjqe)" style="stroke: #A80036; stroke-width: 1.0;"/><path d="M361.5,157.5 L361.5,167.5 L371.5,167.5 L361.5,157.5 " fill="#FBFB77" style="stroke: #A80036; stroke-width: 1.0;"/><text fill="#000000" font-family="sans-serif" font-size="13" lengthAdjust="spacingAndGlyphs" textLength="48" x="308.5" y="174.5669">depned</text><!--MD5=[eaea3ac7f9db97749017154da9d5e01e]
entity launch--><rect fill="#FEFECE" filter="url(#fei8gm2oxxjqe)" height="46.2969" style="stroke: #A80036; stroke-width: 1.5;" width="86" x="294" y="41"/><rect fill="#FEFECE" height="10" style="stroke: #A80036; stroke-width: 1.5;" width="15" x="360" y="46"/><rect fill="#FEFECE" height="2" style="stroke: #A80036; stroke-width: 1.5;" width="4" x="358" y="48"/><rect fill="#FEFECE" height="2" style="stroke: #A80036; stroke-width: 1.5;" width="4" x="358" y="52"/><text fill="#000000" font-family="sans-serif" font-size="14" lengthAdjust="spacingAndGlyphs" textLength="46" x="309" y="73.9951">launch</text><!--MD5=[8fc048c735323dceca2ec64081bb6984]
link core to N1--><path d="M619.752,569.158 C604.365,587.843 582.943,613.855 570.67,628.757 " fill="none" id="core-N1" style="stroke: #A80036; stroke-width: 1.0;"/><!--MD5=[3dd092371ea38898ba75ce85c17e1dcb]
link annotation to N1--><path d="M519.797,569.158 C530.588,587.843 545.611,613.855 554.218,628.757 " fill="none" id="annotation-N1" style="stroke: #A80036; stroke-width: 1.0;"/><!--MD5=[a0a089cb6f16d9137501e8be3d1d67e1]
link pluginManager to N2--><path d="M764.66,378.158 C731.487,396.843 685.306,422.855 658.848,437.757 " fill="none" id="pluginManager-N2" style="stroke: #A80036; stroke-width: 1.0;"/><!--MD5=[615c52ef9945a16d64132393f112c405]
link logProcess to N2--><path d="M638,378.158 C638,396.843 638,422.855 638,437.757 " fill="none" id="logProcess-N2" style="stroke: #A80036; stroke-width: 1.0;"/><!--MD5=[60ce395b91b48b6a8669c01d77b28f75]
link androidPlugin to N2--><path d="M497.605,378.158 C534.482,396.897 585.86,423.005 615.145,437.886 " fill="none" id="androidPlugin-N2" style="stroke: #A80036; stroke-width: 1.0;"/><!--MD5=[4e180b46fd9f246a211e9b5278f893eb]
link launch to N3--><path d="M337,87.056 C337,108.521 337,140.313 337,157.297 " fill="none" id="launch-N3" style="stroke: #A80036; stroke-width: 1.0;"/><!--MD5=[f45c01102ca8097e273438be78c4a4a5]
link N1 to foundation--><path d="M561,654.342 C561,667.88 561,690.492 561,708.493 " fill="none" id="N1-to-foundation" style="stroke: #A80036; stroke-width: 1.0;"/><polygon fill="#A80036" points="561,713.916,565,704.916,561,708.916,557,704.916,561,713.916" style="stroke: #A80036; stroke-width: 1.0;"/><!--MD5=[ff162d952138cdbbda79f0df34fb3ebc]
link N2 to core--><path d="M638,463.342 C638,476.88 638,499.492 638,517.493 " fill="none" id="N2-to-core" style="stroke: #A80036; stroke-width: 1.0;"/><polygon fill="#A80036" points="638,522.916,642,513.916,638,517.916,634,513.916,638,522.916" style="stroke: #A80036; stroke-width: 1.0;"/><!--MD5=[d73034a2166adb6120275f2918253e52]
link N3 to logSpin--><path d="M337,182.726 C337,192.6658 337,208.086 337,225.6873 C337,230.0877 337,234.6243 337,239.2458 C337,239.8234 337,240.4024 337,240.9827 " fill="none" id="N3-to-logSpin" style="stroke: #A80036; stroke-width: 1.0;"/><polygon fill="#A80036" points="337,240.9827,341,231.9827,337,235.9827,333,231.9827,337,240.9827" style="stroke: #A80036; stroke-width: 1.0;"/><!--MD5=[06a9f4426507dde5927ab4dea4ffd575]
link xxplugin to xplugin--><!--MD5=[28607590db577b1658d0dfac8b9063b9]
link xxplugin to xxxplugin--><!--MD5=[017cad6ebc0d3d0f6ae89dc6e33c9a55]
@startuml
node "logSpin"{
Note "depend" as N2
Package "base part"{
Note "depend" as N1
[core] - - N1
[foundation]
[annotation] - - N1
}

package "adapter"{
 [pluginManager] - -N2
 [logProcess] - - N2
}


package "internal Plugin"{
 [androidPlugin] - -N2
}
}

package "plugin"{
[xxplugin]
[xplugin]
[xxxplugin]
}

note "depned" as N3 
[launch] - - N3
N1 - -> foundation
N2 - -> core
N3 - -> logSpin
@enduml

PlantUML version 1.2020.20beta11(Unknown compile time)
(GPL source distribution)
Java Runtime: Java(TM) SE Runtime Environment
JVM: Java HotSpot(TM) 64-Bit Server VM
Default Encoding: UTF-8
Language: en
Country: US
--></g></svg>